<?xml version="1.0" encoding="iso-8859-1"?>
<!-- Uploaded to: SVG Repo, www.svgrepo.com, Generator: SVG Repo Mixer Tools -->
<svg height="800px" width="800px" version="1.1" id="Capa_1" xmlns="http://www.w3.org/2000/svg" xmlns:xlink="http://www.w3.org/1999/xlink" 
	 viewBox="0 0 271.181 271.181" xml:space="preserve">
<g>
	<path style="fill:#010002;" d="M1.941,92.206c-0.647,28.92-1.289,57.844-1.936,86.764c-0.163,7.413,6.309,13.598,13.598,13.598
		c21.669,0,43.338,0,65.008,0c0,21.022,0,42.044,0,63.071c0,7.539,6.19,13.435,13.598,13.598
		c28.919,0.647,57.844,1.294,86.764,1.942c7.413,0.163,13.598-6.309,13.598-13.598c0-21.669,0-43.338,0-65.013
		c21.022,0,42.044,0,63.071,0c7.539,0,13.435-6.19,13.598-13.598c0.647-28.92,1.289-57.844,1.936-86.764
		c0.114-4.944-2.002-8.441-5.058-10.595c-2.127-1.817-4.939-3.002-8.539-3.002c-21.669,0-43.338,0-65.008,0
		c0-21.022,0-42.049,0-63.066c0-7.539-6.19-13.434-13.598-13.598c-28.92-0.647-57.844-1.294-86.764-1.942
		C84.795-0.16,78.61,6.312,78.61,13.601c0,21.669,0,43.338,0,65.008c-21.022,0-42.044,0-63.071,0
		C8,78.608,2.105,84.793,1.941,92.206z M28.832,105.804c21.125,0,42.245,0,63.371,0c7.413,0,13.598-6.184,13.598-13.598
		c0-21.566,0-43.137,0-64.703c19.853,0.446,39.716,0.887,59.569,1.333c0,21.12,0,42.245,0,63.371c0,7.413,6.19,13.598,13.598,13.598
		c21.571,0,43.137,0,64.703,0c-0.446,19.858-0.887,39.711-1.333,59.569c-21.125,0-42.251,0-63.371,0
		c-7.408,0-13.598,6.184-13.598,13.598c0,21.566,0,43.137,0,64.709c-19.853-0.446-39.716-0.887-59.569-1.333
		c0-21.125,0-42.251,0-63.376c0-7.413-6.184-13.598-13.598-13.598c-21.571,0-43.137,0-64.703,0
		C27.946,145.514,28.386,125.656,28.832,105.804z"/>
</g>
</svg>